<svg width="256" height="256" viewBox="0 0 256 256" fill="none" xmlns="http://www.w3.org/2000/svg">
<path fill-rule="evenodd" clip-rule="evenodd" d="M104.425 42.3784C100.056 37.0733 93.5437 34 86.6712 34H29C22.3726 34 17 39.3726 17 46V58.1371V68.2V160C17 166.627 22.3726 172 29 172H229C235.627 172 241 166.627 241 160V70.1371C241 63.5097 235.627 58.1371 229 58.1371H117.404L104.425 42.3784Z" fill="url(#paint0_linear_505_513)"/>
<mask id="mask0_505_513" style="mask-type:alpha" maskUnits="userSpaceOnUse" x="17" y="34" width="224" height="138">
<path fill-rule="evenodd" clip-rule="evenodd" d="M104.425 42.3784C100.056 37.0733 93.5437 34 86.6712 34H29C22.3726 34 17 39.3726 17 46V58.1371V68.2V160C17 166.627 22.3726 172 29 172H229C235.627 172 241 166.627 241 160V70.1371C241 63.5097 235.627 58.1371 229 58.1371H117.404L104.425 42.3784Z" fill="url(#paint1_linear_505_513)"/>
</mask>
<g mask="url(#mask0_505_513)">
<g filter="url(#filter0_f_505_513)">
<path fill-rule="evenodd" clip-rule="evenodd" d="M92.789 74C97.7642 74 102.605 72.3868 106.586 69.4024L116.459 62H229C235.627 62 241 67.3726 241 74V108V160C241 166.627 235.627 172 229 172H29C22.3726 172 17 166.627 17 160L17 108V86C17 79.3726 22.3726 74 29 74H87H92.789Z" fill="black" fill-opacity="0.3"/>
</g>
</g>
<g filter="url(#filter1_ii_505_513)">
<path fill-rule="evenodd" clip-rule="evenodd" d="M92.789 74C97.7642 74 102.605 72.3868 106.586 69.4024L116.459 62H229C235.627 62 241 67.3726 241 74V108V198C241 204.627 235.627 210 229 210H29C22.3726 210 17 204.627 17 198L17 108V86C17 79.3726 22.3726 74 29 74H87H92.789Z" fill="url(#paint2_linear_505_513)"/>
</g>
<path d="M114.589 143.875L121.184 150.47L120.068 154.631C119.885 155.307 119.563 155.904 119.13 156.403C118.034 157.682 116.262 158.293 114.523 157.827C112.108 157.177 110.678 154.697 111.321 152.282L111.544 151.448L113.801 143.009C113.841 143.055 113.873 143.101 113.913 143.147C113.952 143.192 113.992 143.238 114.031 143.284C114.051 143.311 114.07 143.33 114.097 143.357C114.182 143.448 114.267 143.547 114.359 143.632C114.431 143.704 114.503 143.783 114.582 143.855L114.589 143.875Z" fill="#E1E1E0"/>
<path d="M124.111 139.531L122.549 145.358L122.083 147.104L120.803 145.824L116.617 141.637L116.538 141.558C116.426 141.447 116.321 141.335 116.229 141.217C116.19 141.165 116.144 141.112 116.105 141.053C116.078 141.014 116.046 140.981 116.026 140.942C115.993 140.896 115.96 140.843 115.927 140.797C115.842 140.672 115.77 140.541 115.704 140.403C115.632 140.266 115.573 140.134 115.521 139.99C115.521 139.99 115.521 139.99 115.521 139.977C115.501 139.924 115.481 139.865 115.462 139.813C115.442 139.754 115.422 139.695 115.409 139.642C115.376 139.531 115.35 139.426 115.324 139.314C115.324 139.301 115.324 139.288 115.317 139.281C115.304 139.222 115.297 139.17 115.284 139.111C115.278 139.058 115.265 139.006 115.258 138.953C115.258 138.927 115.252 138.894 115.252 138.868C115.252 138.835 115.252 138.802 115.245 138.763C115.245 138.737 115.245 138.717 115.245 138.691C115.245 138.645 115.245 138.599 115.238 138.559C115.238 138.527 115.238 138.5 115.238 138.467C115.238 138.389 115.238 138.303 115.238 138.225C115.238 138.08 115.252 137.929 115.271 137.785C115.271 137.739 115.284 137.687 115.291 137.634C115.304 137.536 115.324 137.437 115.35 137.339C115.35 137.332 115.35 137.319 115.35 137.312L115.383 137.194C115.396 137.129 115.416 137.07 115.435 137.004C115.448 136.958 115.462 136.912 115.481 136.873C115.494 136.827 115.514 136.787 115.527 136.742C115.54 136.715 115.547 136.682 115.56 136.656C115.599 136.558 115.645 136.459 115.691 136.361C115.691 136.361 115.691 136.361 115.691 136.354C115.711 136.322 115.724 136.282 115.744 136.249C115.744 136.236 115.757 136.223 115.763 136.21C115.783 136.177 115.803 136.144 115.822 136.105C115.842 136.066 115.868 136.026 115.895 135.987C115.895 135.987 115.895 135.974 115.908 135.967C115.934 135.921 115.967 135.869 116 135.823C116.032 135.77 116.072 135.718 116.105 135.672C116.17 135.587 116.236 135.501 116.308 135.422C116.367 135.357 116.426 135.285 116.492 135.219C116.518 135.193 116.544 135.167 116.571 135.14L116.59 135.121C116.59 135.121 116.649 135.062 116.682 135.035L116.728 134.996L116.866 134.878C116.912 134.838 116.964 134.806 117.01 134.766C117.05 134.733 117.096 134.701 117.142 134.674C117.443 134.464 117.778 134.287 118.119 134.149C118.231 134.11 118.349 134.071 118.467 134.031C118.513 134.018 118.559 134.005 118.605 133.992C118.677 133.972 118.749 133.959 118.822 133.939C118.881 133.926 118.94 133.92 119.005 133.907C119.058 133.9 119.117 133.887 119.169 133.88H119.222C119.268 133.867 119.314 133.867 119.353 133.861H119.399C119.452 133.854 119.497 133.854 119.55 133.847C119.596 133.847 119.642 133.847 119.688 133.847C119.753 133.847 119.819 133.847 119.878 133.847C120.022 133.847 120.16 133.861 120.305 133.88H120.318C120.357 133.88 120.397 133.893 120.436 133.9C120.449 133.9 120.469 133.9 120.482 133.907C120.567 133.92 120.652 133.939 120.744 133.959H120.757C120.803 133.972 120.849 133.979 120.902 133.992C120.961 134.005 121.027 134.025 121.086 134.044C121.086 134.044 121.092 134.044 121.099 134.044C121.158 134.064 121.217 134.084 121.269 134.103C121.269 134.103 121.269 134.103 121.276 134.103C121.335 134.123 121.387 134.149 121.447 134.169C121.506 134.189 121.565 134.215 121.624 134.241C121.683 134.267 121.735 134.294 121.794 134.327C121.821 134.34 121.847 134.353 121.873 134.366C121.899 134.379 121.926 134.392 121.952 134.412C121.952 134.412 121.952 134.412 121.958 134.412C121.991 134.432 122.024 134.451 122.057 134.471C122.063 134.471 122.077 134.477 122.083 134.484C122.116 134.504 122.149 134.523 122.182 134.543C122.201 134.556 122.221 134.569 122.234 134.582C122.267 134.602 122.3 134.622 122.332 134.648C122.352 134.661 122.372 134.674 122.398 134.694C122.398 134.694 122.411 134.701 122.411 134.707C122.464 134.747 122.516 134.786 122.569 134.825C122.569 134.825 122.575 134.832 122.582 134.832C122.641 134.878 122.7 134.93 122.752 134.983C122.812 135.035 122.864 135.088 122.923 135.14L122.995 135.212C124.045 136.315 124.518 137.929 124.091 139.511L124.111 139.531Z" fill="#E1E1E0"/>
<path d="M119.403 156.019C120.837 153.97 120.339 151.147 118.291 149.712C116.242 148.278 113.419 148.776 111.984 150.824L100.131 167.752C98.6969 169.801 99.1948 172.624 101.243 174.059C103.292 175.493 106.115 174.995 107.55 172.947L119.403 156.019Z" fill="#E1E1E0"/>
<path d="M133.994 152.616C133.882 152.728 133.771 152.833 133.653 152.925C133.561 153.003 133.462 153.076 133.364 153.141C133.154 153.292 132.931 153.417 132.701 153.522C132.629 153.555 132.55 153.587 132.472 153.62C132.373 153.66 132.268 153.699 132.163 153.732C132.012 153.778 131.855 153.824 131.697 153.85C131.54 153.883 131.382 153.909 131.218 153.922C130.936 153.948 130.647 153.948 130.365 153.922C130.207 153.909 130.05 153.883 129.886 153.85C129.728 153.817 129.571 153.778 129.42 153.732C129.315 153.699 129.217 153.66 129.112 153.62C129.033 153.587 128.961 153.555 128.882 153.522C128.652 153.417 128.429 153.286 128.219 153.141C128.121 153.076 128.022 153.003 127.93 152.925C127.812 152.826 127.694 152.721 127.589 152.616L126.414 151.442L122.083 147.11L120.803 145.831L116.617 141.644L116.538 141.565C116.426 141.453 116.321 141.342 116.229 141.224C116.19 141.171 116.144 141.119 116.105 141.06C116.078 141.02 116.046 140.987 116.026 140.948C115.993 140.902 115.96 140.85 115.927 140.804C115.842 140.679 115.77 140.548 115.704 140.41C115.672 140.344 115.639 140.272 115.606 140.207C115.573 140.134 115.547 140.069 115.521 139.997C115.521 139.997 115.521 139.997 115.521 139.983C115.501 139.931 115.481 139.872 115.462 139.819C115.442 139.76 115.422 139.701 115.409 139.649C115.376 139.537 115.35 139.432 115.324 139.321C115.324 139.307 115.324 139.294 115.317 139.288C115.304 139.229 115.297 139.176 115.284 139.117C115.278 139.065 115.265 139.012 115.258 138.96C115.258 138.933 115.252 138.901 115.252 138.874C115.252 138.842 115.252 138.809 115.245 138.769C115.245 138.743 115.245 138.723 115.245 138.697C115.245 138.651 115.245 138.605 115.238 138.566C115.238 138.533 115.238 138.507 115.238 138.474C115.238 138.395 115.238 138.31 115.238 138.231C115.238 138.087 115.252 137.936 115.271 137.792C115.271 137.746 115.284 137.693 115.291 137.641C115.304 137.542 115.324 137.444 115.35 137.345C115.35 137.339 115.35 137.326 115.35 137.319C115.37 137.24 115.389 137.162 115.416 137.083C115.416 137.083 115.416 137.07 115.416 137.063C115.416 137.05 115.422 137.03 115.435 137.011C115.448 136.965 115.462 136.919 115.481 136.879C115.494 136.833 115.514 136.794 115.527 136.748C115.54 136.722 115.547 136.689 115.56 136.663C115.56 136.65 115.573 136.63 115.58 136.617C115.58 136.597 115.593 136.584 115.599 136.564C115.599 136.551 115.612 136.532 115.619 136.518C115.619 136.505 115.626 136.499 115.632 136.486C115.645 136.446 115.665 136.413 115.685 136.374C115.685 136.374 115.704 136.335 115.711 136.315C115.711 136.302 115.724 136.282 115.737 136.269C115.737 136.269 115.737 136.269 115.737 136.262C115.737 136.249 115.75 136.236 115.757 136.223C115.777 136.19 115.796 136.157 115.816 136.118C115.836 136.079 115.862 136.039 115.888 136C115.888 136 115.888 135.987 115.901 135.98C115.927 135.934 115.96 135.882 115.993 135.836C116.026 135.783 116.065 135.731 116.098 135.685C116.164 135.6 116.229 135.514 116.302 135.436C116.361 135.37 116.42 135.298 116.485 135.232C116.498 135.219 116.518 135.199 116.531 135.18C116.544 135.167 116.551 135.16 116.564 135.147L116.584 135.127C116.584 135.127 116.643 135.068 116.676 135.042L116.722 135.002L116.859 134.884C116.905 134.845 116.958 134.812 117.004 134.773L117.043 134.747C117.043 134.747 117.056 134.74 117.063 134.733C117.063 134.733 117.076 134.727 117.082 134.72C117.082 134.72 117.109 134.701 117.122 134.694C117.135 134.687 117.142 134.674 117.155 134.668C117.181 134.648 117.207 134.635 117.233 134.615C117.358 134.53 117.489 134.458 117.621 134.386C117.699 134.346 117.778 134.307 117.857 134.267C117.936 134.235 118.021 134.195 118.1 134.169C118.139 134.149 118.185 134.136 118.224 134.123C118.297 134.097 118.369 134.077 118.441 134.057C118.441 134.057 118.487 134.044 118.507 134.038C118.533 134.031 118.559 134.025 118.579 134.018C118.579 134.018 118.579 134.018 118.585 134.018C118.598 134.018 118.612 134.012 118.631 134.005C118.644 134.005 118.664 133.998 118.677 133.992C118.677 133.992 118.684 133.992 118.69 133.992C118.723 133.992 118.756 133.979 118.795 133.972L118.854 133.959C118.894 133.952 118.933 133.946 118.979 133.939C118.992 133.939 119.005 133.939 119.018 133.933C119.038 133.933 119.051 133.933 119.071 133.926H119.143L119.196 133.913C119.242 133.913 119.287 133.907 119.327 133.9H119.373C119.425 133.893 119.471 133.893 119.524 133.887C119.57 133.887 119.616 133.887 119.662 133.887C119.675 133.887 119.694 133.887 119.707 133.887C119.727 133.887 119.753 133.887 119.78 133.887C119.806 133.887 119.826 133.887 119.852 133.887C119.996 133.887 120.141 133.9 120.278 133.92H120.292C120.331 133.92 120.37 133.933 120.41 133.939C120.423 133.939 120.442 133.939 120.456 133.946C120.488 133.946 120.528 133.959 120.567 133.966C120.62 133.972 120.666 133.985 120.718 133.998H120.731C120.777 134.012 120.823 134.018 120.876 134.031C120.935 134.044 121 134.064 121.059 134.084C121.059 134.084 121.066 134.084 121.072 134.084C121.132 134.103 121.191 134.123 121.243 134.143C121.243 134.143 121.243 134.143 121.25 134.143C121.309 134.162 121.361 134.189 121.42 134.208C121.479 134.228 121.538 134.254 121.597 134.281C121.657 134.307 121.709 134.333 121.768 134.366C121.781 134.366 121.794 134.379 121.807 134.386C121.821 134.392 121.834 134.399 121.847 134.405C121.873 134.418 121.899 134.432 121.926 134.451C121.926 134.451 121.926 134.451 121.932 134.451C121.965 134.471 121.998 134.491 122.031 134.51C122.037 134.51 122.05 134.517 122.057 134.523C122.09 134.543 122.122 134.563 122.155 134.582C122.175 134.596 122.195 134.609 122.208 134.622C122.241 134.642 122.273 134.661 122.306 134.687C122.326 134.701 122.346 134.714 122.372 134.733C122.372 134.733 122.385 134.733 122.385 134.747C122.437 134.786 122.49 134.825 122.542 134.865C122.542 134.865 122.549 134.871 122.556 134.871C122.615 134.917 122.674 134.97 122.726 135.022C122.785 135.075 122.838 135.127 122.897 135.18L122.969 135.252L124.741 137.024L127.202 139.485L133.948 146.231C134.296 146.579 134.578 146.966 134.788 147.386C135.648 149.086 135.372 151.212 133.948 152.636L133.994 152.616Z" fill="#E1E1E0"/>
<path d="M125.069 133.027C123.645 131.603 121.748 130.816 119.734 130.816C118.756 130.816 117.804 130.999 116.925 131.354L115.396 137.05C115.396 137.05 115.402 137.017 115.416 136.997C115.429 136.952 115.442 136.906 115.461 136.866C115.475 136.82 115.494 136.781 115.507 136.735C115.521 136.709 115.527 136.676 115.54 136.65C115.54 136.637 115.553 136.617 115.56 136.604C115.56 136.584 115.573 136.571 115.58 136.551C115.58 136.538 115.593 136.518 115.599 136.505C115.599 136.492 115.606 136.486 115.612 136.472C115.626 136.433 115.645 136.4 115.665 136.361C115.665 136.361 115.665 136.361 115.665 136.354C115.671 136.335 115.678 136.322 115.691 136.308C115.691 136.295 115.704 136.276 115.717 136.262C115.717 136.262 115.717 136.262 115.717 136.256C115.717 136.243 115.731 136.23 115.737 136.217C115.757 136.184 115.776 136.151 115.796 136.112C115.816 136.072 115.842 136.033 115.868 135.993C115.868 135.993 115.868 135.98 115.881 135.974C115.908 135.928 115.941 135.875 115.973 135.829C116.006 135.777 116.039 135.731 116.078 135.678C116.137 135.593 116.21 135.508 116.282 135.429C116.341 135.363 116.4 135.291 116.466 135.226C116.479 135.212 116.498 135.193 116.511 135.173C116.525 135.16 116.531 135.153 116.544 135.14L116.564 135.121C116.564 135.121 116.623 135.062 116.656 135.035C116.669 135.022 116.682 135.009 116.702 134.996L116.84 134.878C116.886 134.838 116.931 134.799 116.984 134.766L117.023 134.74C117.023 134.74 117.036 134.733 117.043 134.727C117.043 134.727 117.056 134.72 117.063 134.714C117.063 134.714 117.115 134.674 117.141 134.655C117.168 134.635 117.194 134.622 117.22 134.602C117.345 134.517 117.476 134.445 117.607 134.372C117.686 134.333 117.765 134.294 117.844 134.254C117.896 134.228 117.955 134.208 118.008 134.182C118.073 134.156 118.146 134.13 118.211 134.103C118.283 134.077 118.356 134.057 118.428 134.038C118.454 134.038 118.474 134.025 118.5 134.018C118.526 134.012 118.552 134.005 118.572 133.998C118.572 133.998 118.572 133.998 118.579 133.998C118.592 133.998 118.605 133.992 118.625 133.985C118.638 133.985 118.657 133.979 118.671 133.972C118.671 133.972 118.677 133.972 118.684 133.972C118.716 133.972 118.749 133.959 118.789 133.952L118.848 133.939C118.9 133.926 118.953 133.92 119.005 133.913C119.025 133.913 119.038 133.913 119.058 133.907H119.13L119.182 133.893C119.228 133.887 119.274 133.88 119.314 133.88H119.36C119.412 133.874 119.458 133.874 119.511 133.867C119.556 133.867 119.602 133.867 119.648 133.867C119.661 133.867 119.681 133.867 119.694 133.867C119.714 133.867 119.74 133.867 119.766 133.867C119.793 133.867 119.812 133.867 119.839 133.867C119.983 133.867 120.127 133.88 120.265 133.9H120.278C120.318 133.9 120.357 133.913 120.396 133.92C120.41 133.92 120.429 133.92 120.442 133.926C120.475 133.926 120.515 133.939 120.554 133.946C120.718 133.979 120.882 134.018 121.046 134.071C121.046 134.071 121.053 134.071 121.059 134.071C121.118 134.084 121.177 134.103 121.23 134.13C121.23 134.13 121.23 134.13 121.236 134.13C121.296 134.149 121.355 134.169 121.407 134.195C121.466 134.215 121.525 134.241 121.584 134.267C121.643 134.294 121.696 134.32 121.755 134.353C121.768 134.353 121.781 134.366 121.794 134.372C121.807 134.379 121.821 134.386 121.834 134.392C121.86 134.405 121.886 134.418 121.912 134.438C121.912 134.438 121.912 134.438 121.919 134.438C121.952 134.458 121.985 134.477 122.017 134.497C122.024 134.497 122.037 134.504 122.044 134.51C122.076 134.53 122.109 134.55 122.142 134.569C122.162 134.582 122.181 134.596 122.195 134.609C122.227 134.628 122.26 134.648 122.293 134.674C122.313 134.687 122.332 134.701 122.359 134.72C122.359 134.72 122.372 134.727 122.372 134.733C122.424 134.773 122.477 134.812 122.529 134.852C122.529 134.852 122.536 134.858 122.542 134.858C122.601 134.904 122.661 134.957 122.713 135.009C122.772 135.062 122.825 135.114 122.884 135.167L122.956 135.239L124.728 137.011L125.627 133.644L125.01 133.027H125.069ZM134.827 147.366C135.687 149.066 135.411 151.192 133.987 152.616C133.876 152.728 133.764 152.833 133.646 152.925C133.554 153.003 133.456 153.076 133.357 153.141C133.147 153.292 132.924 153.417 132.695 153.522C132.622 153.555 132.544 153.587 132.465 153.62C132.366 153.66 132.261 153.699 132.156 153.732C132.006 153.778 131.848 153.817 131.691 153.85C131.533 153.883 131.376 153.902 131.212 153.922C131.067 153.935 130.929 153.942 130.785 153.942C130.641 153.942 130.503 153.942 130.358 153.922C130.201 153.909 130.043 153.883 129.879 153.85C129.722 153.817 129.564 153.778 129.413 153.732C129.308 153.699 129.21 153.66 129.105 153.62C129.026 153.587 128.954 153.555 128.875 153.522C128.646 153.417 128.422 153.286 128.212 153.141C128.114 153.076 128.016 153.003 127.924 152.925C127.806 152.826 127.687 152.721 127.582 152.616L126.408 151.442V155.563C127.674 156.475 129.19 156.961 130.785 156.961C132.504 156.961 134.132 156.39 135.457 155.34V149.689C135.457 148.843 135.221 148.049 134.821 147.373L134.827 147.366Z" fill="#E1E1E0"/>
<path d="M129.348 119.981L126.828 129.385L123.081 124.037L121.269 121.444C119.832 119.397 120.331 116.575 122.378 115.138C123.12 114.619 123.96 114.35 124.8 114.324H124.82C124.866 114.324 124.918 114.324 124.964 114.324C126.395 114.324 127.799 115 128.678 116.253L128.902 116.575C128.902 116.575 128.902 116.575 128.902 116.582C128.941 116.654 128.98 116.726 129.02 116.805C129.039 116.837 129.053 116.87 129.066 116.91C129.079 116.929 129.085 116.949 129.092 116.969C129.092 116.969 129.092 116.982 129.098 116.988C129.112 117.021 129.125 117.054 129.138 117.087C129.276 117.428 129.381 117.789 129.427 118.157C129.427 118.189 129.433 118.222 129.44 118.255C129.44 118.294 129.446 118.34 129.453 118.38C129.453 118.419 129.453 118.465 129.459 118.511C129.459 118.603 129.466 118.701 129.466 118.8C129.466 118.865 129.466 118.931 129.466 118.997C129.466 119.075 129.459 119.161 129.453 119.239C129.44 119.384 129.42 119.535 129.387 119.679C129.368 119.777 129.348 119.876 129.322 119.974L129.348 119.981Z" fill="#E1E1E0"/>
<path d="M158.531 138.257C157.882 140.672 155.401 142.103 152.986 141.46L133.751 136.308L133.023 136.112C132.892 136.079 132.767 136.039 132.636 135.993C131.697 135.711 130.844 135.121 130.24 134.261L129.092 132.62L129.499 131.104L129.853 129.792L132.157 121.202L136.658 127.633L136.731 127.738L136.862 127.771L155.342 132.725C157.757 133.375 159.188 135.856 158.544 138.271L158.531 138.257Z" fill="#E1E1E0"/>
<path d="M135.464 149.683V170.355C135.464 172.855 133.436 174.883 130.936 174.883C128.436 174.883 126.408 172.855 126.408 170.355V151.442L122.076 147.11L120.797 145.831L116.61 141.644L116.531 141.565C116.42 141.453 116.315 141.342 116.223 141.224C116.183 141.171 116.137 141.119 116.098 141.06C116.072 141.02 116.039 140.987 116.019 140.948C115.986 140.902 115.954 140.85 115.921 140.804C115.842 140.679 115.763 140.548 115.698 140.41C115.665 140.344 115.632 140.272 115.599 140.207C115.566 140.134 115.54 140.069 115.514 139.997C115.514 139.997 115.514 139.997 115.514 139.983C115.494 139.931 115.475 139.872 115.455 139.819C115.435 139.76 115.416 139.701 115.402 139.649C115.37 139.537 115.343 139.432 115.317 139.321C115.317 139.307 115.317 139.294 115.311 139.288C115.297 139.229 115.291 139.176 115.278 139.117C115.271 139.065 115.258 139.012 115.251 138.96C115.251 138.933 115.245 138.901 115.245 138.874C115.245 138.842 115.245 138.809 115.238 138.769C115.238 138.743 115.238 138.723 115.238 138.697C115.238 138.651 115.238 138.605 115.232 138.566C115.232 138.533 115.232 138.507 115.232 138.474C115.232 138.395 115.232 138.31 115.232 138.231C115.232 138.087 115.245 137.936 115.265 137.792C115.265 137.746 115.278 137.693 115.284 137.641C115.297 137.542 115.317 137.444 115.343 137.345C115.356 137.299 115.37 137.247 115.383 137.201L115.416 137.083C115.416 137.083 115.416 137.07 115.416 137.063L116.945 131.367L118.585 125.257L120.626 117.651C120.895 116.641 121.492 115.801 122.267 115.217C122.464 115.072 122.667 114.941 122.877 114.823C123.028 114.744 123.179 114.672 123.336 114.613C123.336 114.613 123.363 114.6 123.376 114.6C123.487 114.554 123.606 114.514 123.724 114.482C123.829 114.449 123.94 114.422 124.045 114.403C124.065 114.403 124.085 114.396 124.104 114.39C124.144 114.383 124.19 114.377 124.236 114.363C124.275 114.357 124.321 114.35 124.367 114.344C124.4 114.344 124.426 114.337 124.459 114.331C124.518 114.324 124.57 114.317 124.629 114.311C124.944 114.285 125.266 114.291 125.587 114.331C125.784 114.357 125.981 114.396 126.178 114.449C127.399 114.777 128.363 115.571 128.941 116.588C128.941 116.588 128.941 116.588 128.941 116.595C128.98 116.667 129.02 116.739 129.059 116.818C129.079 116.851 129.092 116.883 129.105 116.923C129.118 116.942 129.125 116.962 129.131 116.982C129.131 116.982 129.131 116.995 129.138 117.002C129.151 117.034 129.164 117.067 129.177 117.1C129.315 117.441 129.42 117.802 129.466 118.17C129.466 118.202 129.472 118.235 129.479 118.268C129.479 118.307 129.486 118.353 129.492 118.393C129.492 118.432 129.492 118.478 129.499 118.524C129.499 118.616 129.505 118.714 129.505 118.813C129.505 118.878 129.505 118.944 129.505 119.01C129.505 119.088 129.499 119.174 129.492 119.252C129.479 119.397 129.459 119.548 129.426 119.692C129.407 119.791 129.387 119.889 129.361 119.987L126.841 129.392L125.699 133.657L124.8 137.024L127.261 139.485L134.007 146.231C134.355 146.579 134.637 146.966 134.847 147.386C135.254 148.062 135.484 148.856 135.484 149.702L135.464 149.683Z" fill="#E1E1E0"/>
<path d="M113.808 143.015C113.808 143.015 113.808 143.009 113.795 143.002C113.795 143.002 113.801 143.009 113.801 143.015C113.841 143.061 113.873 143.107 113.919 143.153C113.88 143.107 113.841 143.061 113.808 143.015ZM115.317 139.307C115.337 139.419 115.37 139.531 115.402 139.636C115.37 139.524 115.343 139.419 115.317 139.307ZM115.337 137.306C115.337 137.306 115.337 137.326 115.337 137.332C115.35 137.286 115.363 137.234 115.376 137.188L115.409 137.07C115.383 137.148 115.363 137.227 115.343 137.306H115.337ZM115.704 140.403C115.77 140.535 115.849 140.666 115.927 140.797C115.849 140.672 115.77 140.541 115.704 140.403ZM117.975 116.03C117.87 116.299 117.778 116.575 117.699 116.857L115.212 126.143L118.572 125.244L120.613 117.638C120.882 116.627 121.479 115.787 122.254 115.203C122.451 115.059 122.654 114.928 122.864 114.81C123.015 114.731 123.166 114.659 123.323 114.6L117.982 116.03H117.975Z" fill="#E1E1E0"/>
<path d="M128.829 111.771C132.874 111.771 136.153 108.492 136.153 104.448C136.153 100.403 132.874 97.1238 128.829 97.1238C124.785 97.1238 121.506 100.403 121.506 104.448C121.506 108.492 124.785 111.771 128.829 111.771Z" fill="#E1E1E0"/>
<path d="M129.459 118.852C129.459 120.847 128.127 122.678 126.106 123.223L123.081 124.03L118.566 125.238L115.206 126.137L113.414 126.616L111.006 127.259C108.591 127.908 106.11 126.471 105.46 124.056C104.817 121.641 106.241 119.167 108.65 118.518C108.65 118.518 108.65 118.518 108.663 118.518L117.962 116.024L123.304 114.593L123.757 114.475C124.104 114.383 124.459 114.331 124.8 114.324H124.82C126.861 114.278 128.744 115.623 129.295 117.678C129.4 118.071 129.453 118.465 129.453 118.852H129.459Z" fill="#E1E1E0"/>
<path d="M114.1 124.095C114.747 121.679 113.313 119.197 110.898 118.549C108.482 117.902 105.999 119.336 105.352 121.751L100.004 141.712C99.3562 144.128 100.79 146.611 103.205 147.258C105.621 147.905 108.104 146.472 108.751 144.056L114.1 124.095Z" fill="#E1E1E0"/>
<path d="M115.311 139.314C115.33 139.426 115.363 139.537 115.396 139.642C115.363 139.531 115.337 139.426 115.311 139.314Z" fill="#E1E1E0"/>
<path d="M115.337 137.306C115.357 137.227 115.376 137.148 115.403 137.07L115.37 137.188C115.357 137.234 115.343 137.286 115.33 137.332C115.33 137.326 115.33 137.313 115.33 137.306H115.337Z" fill="#E1E1E0"/>
<path d="M115.698 140.403C115.763 140.541 115.842 140.666 115.921 140.797C115.836 140.673 115.763 140.541 115.698 140.403Z" fill="#E1E1E0"/>
<path d="M120.508 142.818C120.62 142.799 120.731 142.779 120.836 142.746C120.725 142.773 120.613 142.799 120.508 142.818Z" fill="#E1E1E0"/>
<path d="M122.326 142.077C122.523 141.939 122.713 141.782 122.89 141.611C122.713 141.782 122.529 141.939 122.326 142.077Z" fill="#E1E1E0"/>
<defs>
<filter id="filter0_f_505_513" x="-20" y="25" width="298" height="184" filterUnits="userSpaceOnUse" color-interpolation-filters="sRGB">
<feFlood flood-opacity="0" result="BackgroundImageFix"/>
<feBlend mode="normal" in="SourceGraphic" in2="BackgroundImageFix" result="shape"/>
<feGaussianBlur stdDeviation="18.5" result="effect1_foregroundBlur_505_513"/>
</filter>
<filter id="filter1_ii_505_513" x="17" y="62" width="224" height="148" filterUnits="userSpaceOnUse" color-interpolation-filters="sRGB">
<feFlood flood-opacity="0" result="BackgroundImageFix"/>
<feBlend mode="normal" in="SourceGraphic" in2="BackgroundImageFix" result="shape"/>
<feColorMatrix in="SourceAlpha" type="matrix" values="0 0 0 0 0 0 0 0 0 0 0 0 0 0 0 0 0 0 127 0" result="hardAlpha"/>
<feOffset dy="4"/>
<feComposite in2="hardAlpha" operator="arithmetic" k2="-1" k3="1"/>
<feColorMatrix type="matrix" values="0 0 0 0 1 0 0 0 0 1 0 0 0 0 1 0 0 0 0.25 0"/>
<feBlend mode="normal" in2="shape" result="effect1_innerShadow_505_513"/>
<feColorMatrix in="SourceAlpha" type="matrix" values="0 0 0 0 0 0 0 0 0 0 0 0 0 0 0 0 0 0 127 0" result="hardAlpha"/>
<feOffset dy="-4"/>
<feComposite in2="hardAlpha" operator="arithmetic" k2="-1" k3="1"/>
<feColorMatrix type="matrix" values="0 0 0 0 0 0 0 0 0 0 0 0 0 0 0 0 0 0 0.9 0"/>
<feBlend mode="soft-light" in2="effect1_innerShadow_505_513" result="effect2_innerShadow_505_513"/>
</filter>
<linearGradient id="paint0_linear_505_513" x1="17" y1="34" x2="197.768" y2="215.142" gradientUnits="userSpaceOnUse">
<stop stop-color="#1C1E26"/>
<stop offset="1" stop-color="#05060A"/>
</linearGradient>
<linearGradient id="paint1_linear_505_513" x1="17" y1="34" x2="197.768" y2="215.142" gradientUnits="userSpaceOnUse">
<stop stop-color="#05815D"/>
<stop offset="1" stop-color="#0C575F"/>
</linearGradient>
<linearGradient id="paint2_linear_505_513" x1="17" y1="62" x2="241" y2="210" gradientUnits="userSpaceOnUse">
<stop stop-color="#2B2F35"/>
<stop offset="1" stop-color="#12161E"/>
</linearGradient>
</defs>
</svg>
